<?xml version="1.0" standalone="no"?>
<!DOCTYPE svg PUBLIC "-//W3C//DTD SVG 20010904//EN"
 "http://www.w3.org/TR/2001/REC-SVG-20010904/DTD/svg10.dtd">
<svg version="1.0" xmlns="http://www.w3.org/2000/svg"
 width="577.000000pt" height="360.000000pt" viewBox="0 0 577.000000 360.000000"
 preserveAspectRatio="xMidYMid meet">

<g transform="translate(0.000000,360.000000) scale(0.100000,-0.100000)"
fill="#000000" stroke="none">
<path d="M0 1800 l0 -1800 2885 0 2885 0 0 1800 0 1800 -2885 0 -2885 0 0
-1800z m3000 880 c237 -29 442 -141 593 -325 37 -44 33 -42 -39 25 -172 159
-339 225 -564 224 -152 -1 -240 -23 -368 -88 -118 -62 -197 -131 -309 -274
-12 -16 -36 -27 -67 -33 -27 -5 -73 -20 -103 -33 -29 -14 -53 -22 -53 -19 0 3
16 35 35 69 138 246 389 418 660 453 99 12 120 12 215 1z m200 -150 c120 -34
222 -94 316 -185 45 -44 87 -90 93 -102 12 -23 12 -23 -70 -23 l-82 0 -81 78
c-121 115 -240 172 -407 193 -122 16 -251 -6 -366 -61 -46 -21 -83 -37 -83
-35 0 10 134 85 195 110 147 58 331 68 485 25z m550 -365 c0 -3 -32 -46 -71
-95 l-71 -90 -134 0 -134 0 0 -269 0 -269 -100 -1 c-90 -2 -100 0 -101 16 0
16 -1 16 -9 -2 -5 -12 -9 91 -9 253 l-1 272 -402 0 c-443 0 -453 -2 -453 -55
0 -51 22 -55 300 -55 138 0 270 -5 295 -11 90 -20 143 -76 152 -159 7 -55 -11
-132 -39 -169 -28 -36 -118 -84 -145 -75 -9 2 -19 0 -23 -6 -10 -16 -725 -14
-726 3 0 10 -2 10 -6 0 -2 -7 -14 -13 -24 -13 -11 0 -17 5 -14 10 4 6 11 7 17
4 7 -4 8 -2 4 4 -4 7 18 44 51 87 l57 75 302 0 c328 0 334 1 334 54 0 48 -14
51 -309 56 -273 5 -277 5 -333 32 -81 38 -112 87 -112 177 0 55 5 76 26 112
32 54 99 94 179 108 56 9 1499 15 1499 6z m-30 -255 c0 -5 -7 -7 -15 -4 -9 4
-15 0 -15 -7 0 -9 -3 -10 -8 -4 -4 6 -24 11 -44 12 -37 2 -37 2 -40 -40 l-3
-42 -5 48 -5 47 67 0 c38 0 68 -4 68 -10z m27 -42 c-3 -8 -6 -5 -6 6 -1 11 2
17 5 13 3 -3 4 -12 1 -19z m-1391 -530 c93 -105 215 -180 344 -213 36 -10 72
-20 80 -22 30 -10 167 -2 243 14 44 9 113 33 155 54 85 43 61 18 -31 -31 -31
-17 -62 -28 -69 -24 -7 4 -8 3 -4 -5 6 -9 0 -10 -21 -6 -18 4 -23 3 -15 -2 25
-18 -167 -62 -272 -63 -67 0 -35 9 54 15 47 4 87 9 90 12 6 6 -138 -3 -197
-12 -23 -4 -50 -4 -60 0 -10 5 -32 9 -48 11 -17 1 -56 12 -88 24 -51 19 -56
24 -45 38 12 15 11 16 -5 3 -16 -12 -23 -11 -60 9 -72 40 -127 82 -120 94 3 6
3 8 -2 4 -11 -11 -36 12 -28 25 3 5 1 7 -5 3 -9 -5 -102 92 -102 108 0 3 38 6
84 6 l84 0 38 -42z m-266 -796 c0 -4 -12 -8 -27 -7 -23 0 -28 -4 -28 -25 0
-21 5 -25 28 -25 28 1 36 -9 15 -18 -28 -10 -58 12 -58 41 0 16 3 32 7 35 9
10 63 9 63 -1z m246 -3 c3 -6 1 -16 -4 -21 -8 -8 -8 -17 -1 -30 6 -10 6 -18 0
-18 -5 0 -12 8 -16 18 -7 16 -8 15 -15 -3 -7 -15 -9 -10 -9 23 -1 35 2 42 18
42 11 0 23 -5 27 -11z m222 4 c-10 -2 -18 -9 -18 -14 0 -5 8 -9 18 -9 16 -1
16 -1 0 -11 -10 -5 -18 -14 -18 -19 0 -5 8 -11 18 -13 13 -4 11 -5 -5 -6 -20
-1 -23 4 -23 39 0 35 3 40 23 39 16 -1 18 -2 5 -6z m264 -31 l15 -37 -39 0
c-21 0 -38 1 -38 3 0 13 31 72 38 72 5 0 16 -17 24 -38z m230 -2 c-2 -22 -8
-40 -12 -40 -4 0 -10 18 -12 40 -3 31 0 40 12 40 12 0 15 -9 12 -40z m205 -22
c-2 -13 -4 -3 -4 22 0 25 2 35 4 23 2 -13 2 -33 0 -45z m215 35 l11 -28 10 28
c6 15 14 27 19 27 11 0 10 -5 -6 -45 -17 -41 -31 -45 -40 -11 -3 13 -9 31 -12
40 -11 28 6 17 18 -11z m271 20 c-13 -2 -23 -9 -23 -14 0 -5 10 -9 23 -10 l22
0 -22 -9 c-13 -5 -23 -14 -23 -19 0 -5 10 -12 23 -14 19 -4 18 -4 -5 -6 -26
-1 -28 2 -28 39 0 37 2 40 28 39 23 -2 24 -2 5 -6z"/>
<path d="M2520 1140 c-9 -6 -10 -10 -3 -10 6 0 15 5 18 10 8 12 4 12 -15 0z"/>
<path d="M2705 1090 l-20 -9 20 0 c17 -1 17 -3 5 -11 -8 -5 -10 -10 -5 -10 6
0 17 5 25 10 13 9 13 10 0 10 -13 0 -13 1 0 10 18 12 2 12 -25 0z"/>
<path d="M2975 1090 c-3 -5 -2 -10 4 -10 5 0 13 5 16 10 3 6 2 10 -4 10 -5 0
-13 -4 -16 -10z"/>
<path d="M2590 1080 c19 -13 30 -13 30 0 0 6 -10 10 -22 10 -19 0 -20 -2 -8
-10z"/>
<path d="M2758 1083 c7 -3 16 -2 19 1 4 3 -2 6 -13 5 -11 0 -14 -3 -6 -6z"/>
<path d="M2800 1080 c0 -5 4 -10 9 -10 6 0 13 5 16 10 3 6 -1 10 -9 10 -9 0
-16 -4 -16 -10z"/>
<path d="M2858 1083 c12 -2 32 -2 45 0 12 2 2 4 -23 4 -25 0 -35 -2 -22 -4z"/>
<path d="M2935 1080 c-3 -5 1 -10 9 -10 9 0 16 5 16 10 0 6 -4 10 -9 10 -6 0
-13 -4 -16 -10z"/>
<path d="M2655 1070 c3 -5 10 -10 16 -10 5 0 9 5 9 10 0 6 -7 10 -16 10 -8 0
-12 -4 -9 -10z"/>
<path d="M2300 530 c0 -5 5 -10 10 -10 6 0 10 5 10 10 0 6 -4 10 -10 10 -5 0
-10 -4 -10 -10z"/>
<path d="M2790 515 c0 -8 4 -15 10 -15 5 0 7 7 4 15 -4 8 -8 15 -10 15 -2 0
-4 -7 -4 -15z"/>
</g>
</svg>
